<?xml version="1.0" standalone="no"?>
<!DOCTYPE svg PUBLIC "-//W3C//DTD SVG 20010904//EN"
 "http://www.w3.org/TR/2001/REC-SVG-20010904/DTD/svg10.dtd">
<svg version="1.0" xmlns="http://www.w3.org/2000/svg"
 width="310.000000pt" height="310.000000pt" viewBox="0 0 310.000000 310.000000"
 preserveAspectRatio="xMidYMid meet">
<metadata>
Created by potrace 1.14, written by Peter Selinger 2001-2017
</metadata>
<g transform="translate(0.000000,310.000000) scale(0.100000,-0.100000)"
fill="#000000" stroke="none">
<path d="M2072 2714 c-26 -16 -48 -40 -61 -68 -21 -43 -21 -47 -22 -1092 -1
-1125 -3 -1084 47 -1140 44 -49 64 -52 322 -53 266 -1 276 1 326 59 14 17 30
48 36 70 7 25 10 382 10 1064 -1 1119 1 1077 -57 1139 -15 15 -43 31 -63 37
-19 5 -139 9 -266 9 -226 -1 -232 -1 -272 -25z"/>
<path d="M1244 2245 c-44 -18 -82 -69 -88 -118 -3 -23 -5 -407 -3 -854 2 -808
2 -812 23 -840 12 -15 36 -37 55 -48 31 -18 53 -20 284 -21 286 -2 306 2 352
68 l28 41 -1 831 c-2 920 1 880 -66 928 -32 23 -38 23 -294 24 -189 1 -268 -2
-290 -11z"/>
<path d="M405 1694 c-22 -8 -49 -24 -60 -35 -20 -19 -20 -34 -22 -621 l-1
-602 30 -28 c48 -45 87 -50 362 -46 232 3 254 5 286 24 19 11 41 31 47 45 10
18 13 165 13 611 l0 586 -29 30 c-17 16 -49 34 -73 40 -69 17 -503 14 -553 -4z"/>
</g>
</svg>
